<svg xmlns="http://www.w3.org/2000/svg" version="1.1" xmlns:xlink="http://www.w3.org/1999/xlink" width="200" height="200"><svg xmlns="http://www.w3.org/2000/svg" version="1.1" xmlns:xlink="http://www.w3.org/1999/xlink" width="200" height="200"><svg xmlns="http://www.w3.org/2000/svg" version="1.1" xmlns:xlink="http://www.w3.org/1999/xlink" viewBox="0 0 200 200"><rect width="200" height="200" fill="url('#gradient')"></rect><defs><linearGradient id="gradient" gradientTransform="rotate(45 0.5 0.5)"><stop offset="0%" stop-color="#0c9ee8"></stop><stop offset="100%" stop-color="#d9e241"></stop></linearGradient></defs><g><g fill="#1b3855" transform="matrix(4.602247191011236,0,0,4.602247191011236,5.055759371800363,124.94410192511054)" stroke="#0e5278" stroke-width="0.2"><path d="M6.85 0L1.07 0L1.07-14.22L6.18-14.22Q8.93-14.22 10.36-13.21Q11.79-12.21 11.79-10.29L11.79-10.29Q11.79-9.19 11.28-8.41Q10.77-7.63 9.79-7.26L9.79-7.26Q10.90-6.96 11.49-6.16Q12.09-5.36 12.09-4.21L12.09-4.21Q12.09-2.12 10.77-1.07Q9.44-0.02 6.85 0L6.85 0ZM6.90-6.04L4.50-6.04L4.50-2.64L6.75-2.64Q7.68-2.64 8.17-3.06Q8.67-3.49 8.67-4.26L8.67-4.26Q8.67-6.04 6.90-6.04L6.90-6.04ZM4.50-11.57L4.50-8.29L6.29-8.29Q7.41-8.30 7.89-8.70Q8.37-9.10 8.37-9.88L8.37-9.88Q8.37-10.78 7.85-11.18Q7.33-11.57 6.18-11.57L6.18-11.57L4.50-11.57ZM17.29-15L17.29 0L13.99 0L13.99-15L17.29-15ZM18.92-4.82L18.91-5.38Q18.91-6.96 19.52-8.20Q20.14-9.43 21.29-10.10Q22.44-10.76 23.99-10.76L23.99-10.76Q26.37-10.76 27.73-9.29Q29.10-7.82 29.10-5.29L29.10-5.29L29.10-5.18Q29.10-2.71 27.73-1.25Q26.36 0.20 24.01 0.20L24.01 0.20Q21.76 0.20 20.39-1.16Q19.02-2.51 18.92-4.82L18.92-4.82ZM22.21-5.77L22.20-5.18Q22.20-3.71 22.66-3.03Q23.12-2.34 24.01-2.34L24.01-2.34Q25.77-2.34 25.81-5.05L25.81-5.05L25.81-5.38Q25.81-8.22 23.99-8.22L23.99-8.22Q22.34-8.22 22.21-5.77L22.21-5.77ZM30.17-5.24L30.17-5.36Q30.17-6.96 30.69-8.19Q31.22-9.42 32.21-10.09Q33.19-10.76 34.50-10.76L34.50-10.76Q36.15-10.76 37.08-9.65L37.08-9.65L37.20-10.57L40.19-10.57L40.19-0.40Q40.19 1.00 39.54 2.03Q38.89 3.06 37.66 3.61Q36.43 4.16 34.80 4.16L34.80 4.16Q33.64 4.16 32.55 3.72Q31.46 3.28 30.89 2.58L30.89 2.58L32.27 0.64Q33.18 1.73 34.69 1.73L34.69 1.73Q36.88 1.73 36.88-0.52L36.88-0.52L36.88-0.85Q35.93 0.20 34.48 0.20L34.48 0.20Q32.55 0.20 31.36-1.28Q30.17-2.76 30.17-5.24L30.17-5.24ZM33.47-5.16L33.47-5.16Q33.47-3.86 33.96-3.10Q34.44-2.34 35.32-2.34L35.32-2.34Q36.39-2.34 36.88-3.06L36.88-3.06L36.88-7.50Q36.40-8.22 35.34-8.22L35.34-8.22Q34.46-8.22 33.96-7.44Q33.47-6.65 33.47-5.16Z"></path></g></g></svg></svg><style>@media (prefers-color-scheme: light) { :root { filter: contrast(1) brightness(1); } }
@media (prefers-color-scheme: dark) { :root { filter: none; } }
</style></svg>